HIERARCHY
ROOT joint_0
{
	OFFSET 0.000000 0.000000 0.000000
	CHANNELS 6 Xposition Yposition Zposition Zrotation Yrotation Xrotation 
	JOINT joint_1
	{
		OFFSET 7.745728 2.152245 124.869995
		CHANNELS 3 Zrotation Yrotation Xrotation
		JOINT joint_2
		{
			OFFSET -6.359406 2.617477 113.975952
			CHANNELS 3 Zrotation Yrotation Xrotation
			JOINT joint_3
			{
				OFFSET -8.187927 3.340103 113.713013
				CHANNELS 3 Zrotation Yrotation Xrotation
				JOINT joint_4
				{
					OFFSET 2.859222 5.755905 159.680054
					CHANNELS 3 Zrotation Yrotation Xrotation
					JOINT joint_5
					{
						OFFSET 22.724274 2.598469 88.906982
						CHANNELS 3 Zrotation Yrotation Xrotation
						End Site
						{
							OFFSET 0.000000 0.000000 0.000000
						}
					}
				}
				JOINT joint_6
				{
					OFFSET 2.312134 -31.513222 90.723022
					CHANNELS 3 Zrotation Yrotation Xrotation
					JOINT joint_7
					{
						OFFSET -0.486389 -150.827950 -17.660034
						CHANNELS 3 Zrotation Yrotation Xrotation
						JOINT joint_8
						{
							OFFSET 15.633850 -16.961029 -297.395020
							CHANNELS 3 Zrotation Yrotation Xrotation
							JOINT joint_9
							{
								OFFSET 5.600098 1.609863 -262.782959
								CHANNELS 3 Zrotation Yrotation Xrotation
								End Site
								{
									OFFSET 0.000000 0.000000 0.000000
								}
							}
						}
					}
				}
				JOINT joint_10
				{
					OFFSET 1.012756 37.963039 88.243042
					CHANNELS 3 Zrotation Yrotation Xrotation
					JOINT joint_11
					{
						OFFSET -2.397430 150.471996 -20.492065
						CHANNELS 3 Zrotation Yrotation Xrotation
						JOINT joint_12
						{
							OFFSET -10.575745 12.779427 -297.765015
							CHANNELS 3 Zrotation Yrotation Xrotation
							JOINT joint_13
							{
								OFFSET 196.311081 2.689713 -176.286011
								CHANNELS 3 Zrotation Yrotation Xrotation
								End Site
								{
									OFFSET 0.000000 0.000000 0.000000
								}
							}
						}
					}
				}
			}
		}
	}
	JOINT joint_14
	{
		OFFSET 1.244965 -96.891136 -118.152039
		CHANNELS 3 Zrotation Yrotation Xrotation
		JOINT joint_15
		{
			OFFSET -2.982971 -16.401871 -443.439026
			CHANNELS 3 Zrotation Yrotation Xrotation
			JOINT joint_16
			{
				OFFSET -42.052063 -15.386002 -460.966980
				CHANNELS 3 Zrotation Yrotation Xrotation
				JOINT joint_17
				{
					OFFSET 177.916595 102.818184 -88.655001
					CHANNELS 3 Zrotation Yrotation Xrotation
					End Site
					{
						OFFSET 0.000000 0.000000 0.000000
					}
				}
			}
		}
	}
	JOINT joint_18
	{
		OFFSET 1.788635 96.476997 -118.463074
		CHANNELS 3 Zrotation Yrotation Xrotation
		JOINT joint_19
		{
			OFFSET -9.555542 8.093691 -443.574951
			CHANNELS 3 Zrotation Yrotation Xrotation
			JOINT joint_20
			{
				OFFSET -48.427551 9.415819 -460.500023
				CHANNELS 3 Zrotation Yrotation Xrotation
				JOINT joint_21
				{
					OFFSET 204.978119 20.223980 -87.523996
					CHANNELS 3 Zrotation Yrotation Xrotation
					End Site
					{
						OFFSET 0.000000 0.000000 0.000000
					}
				}
			}
		}
	}
}
MOTION
Frames: 16
Frame Time: 0.016667
-93.669266 -60.796494 1140.469971 -5.421992 -2.058170 0.807126 0.257805 0.116982 -1.056694 0.331993 -0.022538 0.243317 0.299797 0.031093 -0.181563 0.355565 1.518824 -1.582426 0.000000 0.000000 0.000000 6.069457 0.387339 3.696340 -0.185413 1.140123 -3.334653 0.000911 0.847658 -0.071977 0.000000 0.000000 0.000000 0.268020 -3.979156 -0.885144 0.618398 -4.002445 1.915659 2.702320 50.693929 0.005197 0.000000 0.000000 0.000000 -6.794492 1.153501 0.095315 -6.755076 0.270614 -1.582518 -6.618160 0.201682 -3.435237 0.000000 0.000000 0.000000 -4.004631 1.125455 -0.872431 -3.987942 1.847410 -1.117396 -3.916372 2.626497 -1.931296 0.000000 0.000000 0.000000 
-93.607399 -60.663651 1140.470947 -5.397482 -2.074210 0.789735 0.232047 0.117703 -1.089447 0.308340 -0.026792 0.247764 0.275499 0.033114 -0.183653 0.344274 1.551355 -1.543043 0.000000 0.000000 0.000000 6.099359 0.372314 3.721875 -0.186054 1.128595 -3.329246 0.001254 0.830630 -0.054176 0.000000 0.000000 0.000000 0.282031 -3.973611 -0.865238 0.623502 -3.998616 1.991542 2.715009 50.711205 -0.010802 0.000000 0.000000 0.000000 -6.806108 1.150991 0.111111 -6.768410 0.319548 -1.600417 -6.631493 0.185974 -3.432870 0.000000 0.000000 0.000000 -4.012293 1.139871 -0.855738 -3.995086 1.856072 -1.128591 -3.924989 2.621640 -1.934439 0.000000 0.000000 0.000000 
-93.549911 -60.513641 1140.475952 -5.373300 -2.092031 0.773560 0.202964 0.120949 -1.126024 0.281728 -0.030689 0.254325 0.248038 0.034561 -0.186815 0.332149 1.590570 -1.501370 0.000000 0.000000 0.000000 6.132217 0.357463 3.743656 -0.186919 1.117576 -3.318596 0.001665 0.807879 -0.032398 0.000000 0.000000 0.000000 0.276625 -3.956822 -0.850505 0.640894 -3.980735 2.061789 2.740020 50.729813 -0.018496 0.000000 0.000000 0.000000 -6.817900 1.148181 0.123930 -6.782060 0.371425 -1.617623 -6.644942 0.171461 -3.431265 0.000000 0.000000 0.000000 -4.020536 1.154139 -0.842029 -4.002846 1.868119 -1.138664 -3.934195 2.616556 -1.937809 0.000000 0.000000 0.000000 
-93.509468 -60.336990 1140.490967 -5.343850 -2.113885 0.761240 0.173475 0.128700 -1.171798 0.255364 -0.031583 0.263285 0.220601 0.035036 -0.192174 0.319153 1.634864 -1.457164 0.000000 0.000000 0.000000 6.156185 0.345145 3.759452 -0.187936 1.108026 -3.298039 0.002094 0.776420 -0.008701 0.000000 0.000000 0.000000 0.219022 -3.928630 -0.838741 0.681367 -3.943944 2.121184 2.787326 50.743160 -0.006638 0.000000 0.000000 0.000000 -6.831851 1.148215 0.130414 -6.797821 0.423370 -1.634477 -6.660345 0.160705 -3.432811 0.000000 0.000000 0.000000 -4.031931 1.166639 -0.837656 -4.013933 1.888410 -1.142423 -3.946151 2.610694 -1.942278 0.000000 0.000000 0.000000 
-93.484184 -60.136780 1140.512939 -5.311223 -2.139747 0.751685 0.141477 0.144349 -1.224434 0.227181 -0.034750 0.274000 0.191023 0.035842 -0.199257 0.305089 1.684454 -1.409658 0.000000 0.000000 0.000000 6.179124 0.333938 3.768628 -0.189065 1.099438 -3.266958 0.002571 0.736706 0.018457 0.000000 0.000000 0.000000 0.125871 -3.889068 -0.830973 0.740428 -3.890654 2.172347 2.852822 50.754635 0.020500 0.000000 0.000000 0.000000 -6.847109 1.149730 0.131569 -6.814978 0.478112 -1.650697 -6.676899 0.152440 -3.436380 0.000000 0.000000 0.000000 -4.045584 1.178314 -0.839585 -4.027354 1.915821 -1.142755 -3.960212 2.604143 -1.947576 0.000000 0.000000 0.000000 
-93.445717 -59.932041 1140.531006 -5.282992 -2.163681 0.740436 0.108164 0.154144 -1.274167 0.197320 -0.035778 0.284401 0.159957 0.035853 -0.205137 0.291486 1.740460 -1.364813 0.000000 0.000000 0.000000 6.196896 0.324036 3.782066 -0.190615 1.091618 -3.245571 0.003056 0.699440 0.045822 0.000000 0.000000 0.000000 0.017317 -3.837779 -0.828364 0.805328 -3.823801 2.216321 2.924577 50.767762 0.045588 0.000000 0.000000 0.000000 -6.861124 1.153032 0.135008 -6.830603 0.526734 -1.667120 -6.692270 0.144558 -3.439560 0.000000 0.000000 0.000000 -4.058135 1.191493 -0.841521 -4.039840 1.939829 -1.140091 -3.972955 2.596077 -1.952167 0.000000 0.000000 0.000000 
-93.373573 -59.736530 1140.536011 -5.265279 -2.182377 0.724112 0.073759 0.153032 -1.313589 0.165496 -0.037536 0.293192 0.127125 0.034643 -0.210145 0.279469 1.804492 -1.327157 0.000000 0.000000 0.000000 6.207419 0.315895 3.809977 -0.193032 1.084872 -3.249630 0.003568 0.671340 0.073598 0.000000 0.000000 0.000000 -0.097811 -3.771652 -0.833239 0.867927 -3.741920 2.258917 2.995683 50.782469 0.053628 0.000000 0.000000 0.000000 -6.871409 1.160926 0.147093 -6.841736 0.559820 -1.685817 -6.704242 0.135274 -3.440164 0.000000 0.000000 0.000000 -4.067030 1.209199 -0.839648 -4.048994 1.952785 -1.132784 -3.981661 2.585078 -1.954758 0.000000 0.000000 0.000000 
-93.276443 -59.541931 1140.532959 -5.255439 -2.197110 0.704314 0.038630 0.142173 -1.345663 0.132162 -0.038248 0.299361 0.093160 0.033137 -0.213046 0.268251 1.876090 -1.293626 0.000000 0.000000 0.000000 6.210338 0.309043 3.847118 -0.196131 1.078639 -3.271656 0.004119 0.648864 0.102703 0.000000 0.000000 0.000000 -0.229110 -3.691303 -0.847112 0.932724 -3.644151 2.300346 3.070433 50.797139 0.050421 0.000000 0.000000 0.000000 -6.879093 1.172337 0.164841 -6.849691 0.580880 -1.705839 -6.713795 0.125519 -3.439239 0.000000 0.000000 0.000000 -4.073274 1.229609 -0.836296 -4.055766 1.958423 -1.120998 -3.987353 2.572288 -1.955896 0.000000 0.000000 0.000000 
-93.178314 -59.347366 1140.520996 -5.247311 -2.210081 0.682779 0.002013 0.129590 -1.373477 0.096994 -0.038057 0.304487 0.057538 0.030669 -0.215275 0.257195 1.948355 -1.260828 0.000000 0.000000 0.000000 6.209169 0.303887 3.885713 -0.198915 1.073605 -3.298252 0.004519 0.632798 0.123911 0.000000 0.000000 0.000000 -0.353007 -3.606858 -0.852608 1.001983 -3.543478 2.312408 3.147384 50.820727 0.056728 0.000000 0.000000 0.000000 -6.886206 1.179160 0.184345 -6.857394 0.607104 -1.725856 -6.722956 0.114440 -3.437365 0.000000 0.000000 0.000000 -4.079713 1.249114 -0.829017 -4.062554 1.963893 -1.112133 -3.993531 2.555304 -1.956822 0.000000 0.000000 0.000000 
-93.095245 -59.154255 1140.500000 -5.237725 -2.221912 0.660381 -0.037863 0.119166 -1.397169 0.058213 -0.037247 0.306660 0.018715 0.027618 -0.215218 0.246359 2.013789 -1.227937 0.000000 0.000000 0.000000 6.207720 0.299116 3.921512 -0.200469 1.068794 -3.322775 0.004610 0.627401 0.129168 0.000000 0.000000 0.000000 -0.449915 -3.524761 -0.836716 1.081864 -3.448570 2.270245 3.229455 50.864658 0.094161 0.000000 0.000000 0.000000 -6.893911 1.173069 0.202802 -6.866843 0.653830 -1.743951 -6.732856 0.101921 -3.435100 0.000000 0.000000 0.000000 -4.087892 1.264096 -0.814263 -4.070449 1.974910 -1.114207 -4.002477 2.531398 -1.958224 0.000000 0.000000 0.000000 
-93.015282 -58.964031 1140.468994 -5.228666 -2.231444 0.636552 -0.080219 0.106916 -1.416335 0.016523 -0.035434 0.306655 -0.022668 0.023477 -0.213318 0.235861 2.076777 -1.196006 0.000000 0.000000 0.000000 6.203307 0.295607 3.957007 -0.201253 1.064829 -3.349046 0.004446 0.630479 0.121267 0.000000 0.000000 0.000000 -0.530219 -3.440869 -0.805855 1.171401 -3.354009 2.184973 3.317095 50.924907 0.154539 0.000000 0.000000 0.000000 -6.901242 1.157047 0.221813 -6.876719 0.714204 -1.761074 -6.742620 0.087850 -3.431916 0.000000 0.000000 0.000000 -4.096944 1.276164 -0.792816 -4.078771 1.987840 -1.124441 -4.013062 2.501326 -1.959700 0.000000 0.000000 0.000000 
-92.951767 -58.758205 1140.432983 -5.221447 -2.242532 0.612375 -0.121305 0.101971 -1.434447 -0.023701 -0.034791 0.307740 -0.062805 0.021254 -0.212168 0.224493 2.138789 -1.160520 0.000000 0.000000 0.000000 6.200198 0.295046 3.987894 -0.202230 1.064011 -3.374436 0.004275 0.632506 0.113242 0.000000 0.000000 0.000000 -0.601571 -3.358567 -0.770938 1.251999 -3.262847 2.083864 3.394406 50.978354 0.205024 0.000000 0.000000 0.000000 -6.908030 1.141624 0.240645 -6.886044 0.774824 -1.778828 -6.752016 0.071875 -3.427418 0.000000 0.000000 0.000000 -4.105693 1.288232 -0.774804 -4.086962 2.002636 -1.129387 -4.022940 2.471979 -1.960954 0.000000 0.000000 0.000000 
-93.015930 -58.513714 1140.406006 -5.324984 -2.270948 0.585330 -0.121913 0.135297 -1.441603 -0.023074 -0.038230 0.308707 -0.062554 0.026594 -0.213130 0.212838 2.195243 -1.123127 0.000000 0.000000 0.000000 6.212257 0.290098 4.022673 -0.204634 1.060879 -3.413482 0.004277 0.625079 0.115003 0.000000 0.000000 0.000000 -0.675589 -3.290667 -0.758382 1.317041 -3.186107 1.999750 3.456824 51.009349 0.233255 0.000000 0.000000 0.000000 -6.878620 1.125885 0.265668 -6.859154 0.836215 -1.803661 -6.727411 0.070702 -3.414432 0.000000 0.000000 0.000000 -4.078452 1.322296 -0.762140 -4.059887 2.020530 -1.125296 -3.998140 2.446195 -1.947775 0.000000 0.000000 0.000000 
-93.206062 -58.238625 1140.385986 -5.541786 -2.315608 0.555423 -0.083083 0.204502 -1.438930 0.017543 -0.046133 0.312385 -0.023083 0.039423 -0.217518 0.201008 2.244877 -1.084091 0.000000 0.000000 0.000000 6.238879 0.279059 4.064146 -0.207961 1.053571 -3.467950 0.004358 0.613618 0.121334 0.000000 0.000000 0.000000 -0.747182 -3.236389 -0.763775 1.373508 -3.123428 1.922180 3.510197 51.027566 0.251985 0.000000 0.000000 0.000000 -6.812300 1.105732 0.296924 -6.795647 0.903247 -1.834470 -6.668108 0.085366 -3.393236 0.000000 0.000000 0.000000 -4.014372 1.377563 -0.751346 -3.996470 2.041818 -1.117384 -3.938352 2.421447 -1.919772 0.000000 0.000000 0.000000 
-93.050354 -57.974106 1140.328979 -5.376594 -2.316685 0.535328 -0.169944 0.197361 -1.468853 -0.067735 -0.051605 0.313402 -0.108410 0.041336 -0.214411 0.185246 2.313638 -1.032093 0.000000 0.000000 0.000000 6.226614 0.305058 4.056587 -0.210402 1.078473 -3.462901 0.004423 0.596415 0.126492 0.000000 0.000000 0.000000 -0.794073 -3.148400 -0.701839 1.396317 -3.033051 1.783337 3.528107 51.030409 0.222096 0.000000 0.000000 0.000000 -6.869973 1.116413 0.304988 -6.854128 0.936573 -1.850467 -6.725982 0.035957 -3.393420 0.000000 0.000000 0.000000 -4.075124 1.363416 -0.760958 -4.057589 2.060062 -1.084658 -3.993914 2.406120 -1.941957 0.000000 0.000000 0.000000 
-92.582497 -57.655888 1140.159058 -4.303576 -2.197973 0.530643 -0.555820 0.027237 -1.548010 -0.453400 -0.058292 0.306193 -0.491477 0.019924 -0.191250 0.161270 2.442534 -0.955370 0.000000 0.000000 0.000000 6.113394 0.370319 3.957882 -0.208100 1.129896 -3.362007 0.004049 0.589175 0.107796 0.000000 0.000000 0.000000 -0.800336 -3.030240 -0.556632 1.387297 -2.920531 1.559349 3.510184 51.046789 0.152516 0.000000 0.000000 0.000000 -7.221102 1.119369 0.265537 -7.205939 0.952321 -1.824729 -7.062441 -0.152866 -3.452052 0.000000 0.000000 0.000000 -4.432309 1.107761 -0.798605 -4.410604 2.124616 -1.014670 -4.324178 2.416231 -2.083936 0.000000 0.000000 0.000000 
